<?xml version="1.0" standalone="no"?>
<!DOCTYPE svg PUBLIC "-//W3C//DTD SVG 1.1//EN"
  "http://www.w3.org/Graphics/SVG/1.1/DTD/svg11.dtd">
<svg width="99mm" height="106.51000213623044mm" viewBox="-53 -38.99999999999999 99 106.51000213623044" xmlns="http://www.w3.org/2000/svg" version="1.1">
	<title>svgOutput</title>
	<desc>made with tinkercad</desc>
<path d="M -50.875 -37.87499999999999 L -50.5 -37.928569793701165 L -50 -37.99999999999999 L -28.844999313354492 -37.99999999999999 L -27.5 -37.99999999999999 L 6.748000144958496 -37.99999999999999 L 30.844999313354492 -37.99999999999999 L 43 -37.99999999999999 L 43.25 -37.96428680419921 L 43.5 -37.928569793701165 L 43.875 -37.87499999999999 L 44.5 -37.49999999999999 L 44.875 -36.87499999999999 L 45 -35.99999999999999 L 45 -34.99999999999999 L 45 1.1102230246251565e-16 L 45 63.499999999999986 L 45 64.49999999999999 L 44.875 65.37499999999999 L 44.5 65.99999999999999 L 43.875 66.37499999999999 L 43.5 66.42857360839842 L 43.25 66.4642868041992 L 43 66.49999999999999 L 30.844999313354492 66.49999999999999 L 29.49854850769043 66.49999999999999 L 29.206727981567383 66.49999999999999 L 28.93514060974121 66.49999999999999 L 28.672082901000977 66.49999999999999 L 28.406225204467773 66.49999999999999 L 28.30500030517578 66.51000213623045 L -26.30500030517578 66.51000213623045 L -26.406225204467773 66.49999999999999 L -28.844999313354492 66.49999999999999 L -50 66.49999999999999 L -50.5 66.42857360839842 L -50.875 66.37499999999999 L -51.5 65.99999999999999 L -51.875 65.37499999999999 L -52 64.49999999999999 L -52 63.499999999999986 L -52 1.1102230246251565e-16 L -52 -35.99999999999999 L -51.875 -36.87499999999999 L -51.5 -37.49999999999999 L -50.875 -37.87499999999999 M -47.28499984741211 -30.604000091552727 L -47.104000091552734 -30.53887748718261 L -47.09600067138672 -30.535999298095696 L -46.900001525878906 -30.486999511718743 L -46.70100021362305 -30.457000732421868 L -46.5 -30.447000503540032 L -46.29899978637695 -30.457000732421868 L -46.099998474121094 -30.486999511718743 L -45.90399932861328 -30.535999298095696 L -45.71500015258789 -30.604000091552727 L -45.53200149536133 -30.69000053405761 L -45.36000061035156 -30.792999267578118 L -45.198001861572266 -30.913000106811516 L -45.055999755859375 -31.042610168457024 L -45.04899978637695 -31.048999786376946 L -44.91299819946289 -31.197999954223626 L -44.792999267578125 -31.360000610351555 L -44.689998626708984 -31.531999588012688 L -44.604000091552734 -31.715000152587884 L -44.5359992980957 -31.903999328613274 L -44.48699951171875 -32.09999847412109 L -44.457000732421875 -32.298999786376946 L -44.448001861572266 -32.49999999999999 L -44.457000732421875 -32.70100021362304 L -44.46710205078125 -32.76800155639648 L -44.48699951171875 -32.9000015258789 L -44.5359992980957 -33.09600067138671 L -44.604000091552734 -33.2849998474121 L -44.689998626708984 -33.467998504638665 L -44.792999267578125 -33.63999938964843 L -44.91299819946289 -33.80199813842773 L -45.04899978637695 -33.95100021362304 L -45.055999755859375 -33.95738983154296 L -45.198001861572266 -34.0870018005371 L -45.36000061035156 -34.20700073242187 L -45.53200149536133 -34.31000137329101 L -45.71500015258789 -34.39599990844726 L -45.90399932861328 -34.46400070190429 L -46.099998474121094 -34.51300048828124 L -46.29899978637695 -34.54299926757812 L -46.5 -34.55199813842773 L -46.70100021362305 -34.54299926757812 L -46.900001525878906 -34.51300048828124 L -47.09600067138672 -34.46400070190429 L -47.104000091552734 -34.46112060546874 L -47.28499984741211 -34.39599990844726 L -47.46799850463867 -34.31000137329101 L -47.63999938964844 -34.20700073242187 L -47.801998138427734 -34.0870018005371 L -47.95100021362305 -33.95100021362304 L -48.08700180053711 -33.80199813842773 L -48.207000732421875 -33.63999938964843 L -48.310001373291016 -33.467998504638665 L -48.395999908447266 -33.2849998474121 L -48.4640007019043 -33.09600067138671 L -48.51300048828125 -32.9000015258789 L -48.53289794921875 -32.76800155639648 L -48.542999267578125 -32.70100021362304 L -48.553001403808594 -32.49999999999999 L -48.542999267578125 -32.298999786376946 L -48.51300048828125 -32.09999847412109 L -48.4640007019043 -31.903999328613274 L -48.395999908447266 -31.715000152587884 L -48.310001373291016 -31.531999588012688 L -48.207000732421875 -31.360000610351555 L -48.08700180053711 -31.197999954223626 L -47.95100021362305 -31.048999786376946 L -47.801998138427734 -30.913000106811516 L -47.63999938964844 -30.792999267578118 L -47.518096923828125 -30.719999313354485 L -47.46799850463867 -30.69000053405761 L -47.28499984741211 -30.604000091552727 M -38.917999267578125 -18.388000488281246 L -38.9119987487793 -18.384399414062496 L -38.702999114990234 -18.25900077819824 L -38.47700119018555 -18.15200042724609 L -38.24100112915039 -18.0669994354248 L -37.99800109863281 -18.00699996948242 L -37.75 -17.96999931335449 L -37.5 -17.95700073242187 L -37.25 -17.96999931335449 L -37.00199890136719 -18.00699996948242 L -36.86399841308594 -18.041074752807614 L -36.75899887084961 -18.0669994354248 L -36.52299880981445 -18.15200042724609 L -36.297000885009766 -18.25900077819824 L -36.082000732421875 -18.388000488281246 L -35.88100051879883 -18.537000656127926 L -35.69499969482422 -18.70499992370605 L -35.527000427246094 -18.89100074768066 L -35.37799835205078 -19.091999053955075 L -35.249000549316406 -19.306999206542965 L -35.141998291015625 -19.53300094604492 L -35.05699920654297 -19.76899909973144 L -34.99700164794922 -20.01199913024902 L -34.959999084472656 -20.260000228881832 L -34.949440002441406 -20.479999542236325 L -34.948001861572266 -20.510000228881832 L -34.959999084472656 -20.760000228881832 L -34.99700164794922 -21.007999420166012 L -35.05699920654297 -21.25099945068359 L -35.141998291015625 -21.486999511718746 L -35.249000549316406 -21.712999343872067 L -35.37799835205078 -21.927999496459957 L -35.527000427246094 -22.128999710083004 L -35.69499969482422 -22.315000534057614 L -35.88100051879883 -22.48299980163574 L -36.082000732421875 -22.63199996948242 L -36.297000885009766 -22.760999679565426 L -36.52299880981445 -22.868000030517575 L -36.75899887084961 -22.95299911499023 L -36.86399841308594 -22.97892570495605 L -37.00199890136719 -23.013000488281246 L -37.25 -23.049999237060543 L -37.5 -23.0620002746582 L -37.75 -23.049999237060543 L -37.99800109863281 -23.013000488281246 L -38.24100112915039 -22.95299911499023 L -38.47700119018555 -22.868000030517575 L -38.702999114990234 -22.760999679565426 L -38.9119987487793 -22.635599136352536 L -38.917999267578125 -22.63199996948242 L -39.11899948120117 -22.48299980163574 L -39.30500030517578 -22.315000534057614 L -39.472999572753906 -22.128999710083004 L -39.62200164794922 -21.927999496459957 L -39.750999450683594 -21.712999343872067 L -39.858001708984375 -21.486999511718746 L -39.94300079345703 -21.25099945068359 L -40.00299835205078 -21.007999420166012 L -40.040000915527344 -20.760000228881832 L -40.051998138427734 -20.510000228881832 L -40.050559997558594 -20.479999542236325 L -40.040000915527344 -20.260000228881832 L -40.00299835205078 -20.01199913024902 L -39.94300079345703 -19.76899909973144 L -39.858001708984375 -19.53300094604492 L -39.750999450683594 -19.306999206542965 L -39.62200164794922 -19.091999053955075 L -39.472999572753906 -18.89100074768066 L -39.30500030517578 -18.70499992370605 L -39.11899948120117 -18.537000656127926 L -38.917999267578125 -18.388000488281246 M -47.28499984741211 62.89599990844725 L -47.104000091552734 62.961120605468736 L -47.09600067138672 62.96400070190428 L -46.900001525878906 63.013000488281236 L -46.70100021362305 63.04299926757811 L -46.5 63.05300140380858 L -46.29899978637695 63.04299926757811 L -46.099998474121094 63.013000488281236 L -45.90399932861328 62.96400070190428 L -45.71500015258789 62.89599990844725 L -45.53200149536133 62.810001373291 L -45.36000061035156 62.70700073242186 L -45.198001861572266 62.587001800537095 L -45.055999755859375 62.457389831542955 L -45.04899978637695 62.45100021362303 L -44.91299819946289 62.30199813842772 L -44.792999267578125 62.13999938964842 L -44.689998626708984 61.96799850463866 L -44.604000091552734 61.784999847412095 L -44.5359992980957 61.596000671386705 L -44.49700164794922 61.43999862670897 L -44.48699951171875 61.40000152587889 L -44.457000732421875 61.20100021362303 L -44.448001861572266 60.999999999999986 L -44.457000732421875 60.79899978637694 L -44.48699951171875 60.59999847412108 L -44.5359992980957 60.40399932861327 L -44.604000091552734 60.215000152587876 L -44.689998626708984 60.032001495361314 L -44.792999267578125 59.86000061035155 L -44.91299819946289 59.69800186157225 L -45.04899978637695 59.54899978637694 L -45.055999755859375 59.54261016845702 L -45.198001861572266 59.412998199462876 L -45.36000061035156 59.29299926757811 L -45.53200149536133 59.18999862670897 L -45.71500015258789 59.10400009155272 L -45.90399932861328 59.03599929809569 L -46.099998474121094 58.986999511718736 L -46.29899978637695 58.95700073242186 L -46.5 58.94800186157225 L -46.70100021362305 58.95700073242186 L -46.900001525878906 58.986999511718736 L -47.09600067138672 59.03599929809569 L -47.104000091552734 59.038879394531236 L -47.28499984741211 59.10400009155272 L -47.46799850463867 59.18999862670897 L -47.63999938964844 59.29299926757811 L -47.773651123046875 59.39199829101561 L -47.801998138427734 59.412998199462876 L -47.95100021362305 59.54899978637694 L -48.08700180053711 59.69800186157225 L -48.207000732421875 59.86000061035155 L -48.310001373291016 60.032001495361314 L -48.395999908447266 60.215000152587876 L -48.4640007019043 60.40399932861327 L -48.51300048828125 60.59999847412108 L -48.542999267578125 60.79899978637694 L -48.553001403808594 60.999999999999986 L -48.542999267578125 61.20100021362303 L -48.51300048828125 61.40000152587889 L -48.50299835205078 61.43999862670897 L -48.4640007019043 61.596000671386705 L -48.395999908447266 61.784999847412095 L -48.310001373291016 61.96799850463866 L -48.207000732421875 62.13999938964842 L -48.08700180053711 62.30199813842772 L -47.95100021362305 62.45100021362303 L -47.801998138427734 62.587001800537095 L -47.63999938964844 62.70700073242186 L -47.46799850463867 62.810001373291 L -47.28499984741211 62.89599990844725 M -47.24100112915039 52.43299865722655 L -47.104000091552734 52.46682739257811 L -46.99800109863281 52.493000030517564 L -46.75 52.52999877929686 L -46.5 52.54299926757811 L -46.25 52.52999877929686 L -46.00199890136719 52.493000030517564 L -45.75899887084961 52.43299865722655 L -45.52299880981445 52.34799957275389 L -45.297000885009766 52.241001129150376 L -45.082000732421875 52.111999511718736 L -45.055999755859375 52.0927276611328 L -44.88100051879883 51.96300125122069 L -44.69499969482422 51.7949981689453 L -44.527000427246094 51.609001159667955 L -44.448001861572266 51.50242996215819 L -44.37799835205078 51.40800094604491 L -44.249000549316406 51.19300079345702 L -44.141998291015625 50.966999053955064 L -44.05699920654297 50.73099899291991 L -43.99700164794922 50.48799896240233 L -43.959999084472656 50.24000167846678 L -43.948001861572266 49.99000167846678 L -43.959999084472656 49.74000167846678 L -43.99700164794922 49.49200057983397 L -44.05699920654297 49.24900054931639 L -44.09193801879883 49.15200042724608 L -44.141998291015625 49.013000488281236 L -44.249000549316406 48.78699874877928 L -44.37799835205078 48.57199859619139 L -44.448001861572266 48.47756958007811 L -44.527000427246094 48.370998382568345 L -44.69499969482422 48.185001373291 L -44.88100051879883 48.01699829101561 L -45.055999755859375 47.88727188110351 L -45.082000732421875 47.86800003051757 L -45.297000885009766 47.73899841308593 L -45.52299880981445 47.631999969482415 L -45.75899887084961 47.54700088500976 L -46.00199890136719 47.48699951171874 L -46.25 47.450000762939446 L -46.5 47.43799972534179 L -46.75 47.450000762939446 L -46.99800109863281 47.48699951171874 L -47.104000091552734 47.513172149658196 L -47.24100112915039 47.54700088500976 L -47.47700119018555 47.631999969482415 L -47.702999114990234 47.73899841308593 L -47.917999267578125 47.86800003051757 L -48.11899948120117 48.01699829101561 L -48.30500030517578 48.185001373291 L -48.472999572753906 48.370998382568345 L -48.553001403808594 48.47891998291014 L -48.62200164794922 48.57199859619139 L -48.750999450683594 48.78699874877928 L -48.858001708984375 49.013000488281236 L -48.90806198120117 49.15200042724608 L -48.94300079345703 49.24900054931639 L -49.00299835205078 49.49200057983397 L -49.040000915527344 49.74000167846678 L -49.051998138427734 49.99000167846678 L -49.040000915527344 50.24000167846678 L -49.00299835205078 50.48799896240233 L -48.94300079345703 50.73099899291991 L -48.858001708984375 50.966999053955064 L -48.750999450683594 51.19300079345702 L -48.74679946899414 51.20000076293944 L -48.62200164794922 51.40800094604491 L -48.553001403808594 51.50107955932616 L -48.472999572753906 51.609001159667955 L -48.30500030517578 51.7949981689453 L -48.11899948120117 51.96300125122069 L -47.917999267578125 52.111999511718736 L -47.702999114990234 52.241001129150376 L -47.47700119018555 52.34799957275389 L -47.24100112915039 52.43299865722655 M 38.90399932861328 -30.535999298095696 L 38.9119987487793 -30.53400039672851 L 39.099998474121094 -30.486999511718743 L 39.29899978637695 -30.457000732421868 L 39.5 -30.447000503540032 L 39.70100021362305 -30.457000732421868 L 39.900001525878906 -30.486999511718743 L 40.09600067138672 -30.535999298095696 L 40.28499984741211 -30.604000091552727 L 40.46799850463867 -30.69000053405761 L 40.63999938964844 -30.792999267578118 L 40.801998138427734 -30.913000106811516 L 40.95100021362305 -31.048999786376946 L 40.959999084472656 -31.058860778808587 L 41.08700180053711 -31.197999954223626 L 41.207000732421875 -31.360000610351555 L 41.310001373291016 -31.531999588012688 L 41.395999908447266 -31.715000152587884 L 41.4640007019043 -31.903999328613274 L 41.51300048828125 -32.09999847412109 L 41.542999267578125 -32.298999786376946 L 41.551998138427734 -32.49999999999999 L 41.542999267578125 -32.70100021362304 L 41.53289794921875 -32.76800155639648 L 41.51300048828125 -32.9000015258789 L 41.4640007019043 -33.09600067138671 L 41.395999908447266 -33.2849998474121 L 41.310001373291016 -33.467998504638665 L 41.207000732421875 -33.63999938964843 L 41.08700180053711 -33.80199813842773 L 40.959999084472656 -33.9411392211914 L 40.95100021362305 -33.95100021362304 L 40.801998138427734 -34.0870018005371 L 40.63999938964844 -34.20700073242187 L 40.46799850463867 -34.31000137329101 L 40.28499984741211 -34.39599990844726 L 40.09600067138672 -34.46400070190429 L 39.900001525878906 -34.51300048828124 L 39.70100021362305 -34.54299926757812 L 39.5 -34.55199813842773 L 39.29899978637695 -34.54299926757812 L 39.099998474121094 -34.51300048828124 L 38.9119987487793 -34.46599960327148 L 38.90399932861328 -34.46400070190429 L 38.71500015258789 -34.39599990844726 L 38.53200149536133 -34.31000137329101 L 38.36000061035156 -34.20700073242187 L 38.198001861572266 -34.0870018005371 L 38.04899978637695 -33.95100021362304 L 37.91299819946289 -33.80199813842773 L 37.792999267578125 -33.63999938964843 L 37.689998626708984 -33.467998504638665 L 37.604000091552734 -33.2849998474121 L 37.5359992980957 -33.09600067138671 L 37.48699951171875 -32.9000015258789 L 37.46710205078125 -32.76800155639648 L 37.457000732421875 -32.70100021362304 L 37.448001861572266 -32.49999999999999 L 37.457000732421875 -32.298999786376946 L 37.48699951171875 -32.09999847412109 L 37.5359992980957 -31.903999328613274 L 37.604000091552734 -31.715000152587884 L 37.689998626708984 -31.531999588012688 L 37.792999267578125 -31.360000610351555 L 37.91299819946289 -31.197999954223626 L 38.04899978637695 -31.048999786376946 L 38.198001861572266 -30.913000106811516 L 38.36000061035156 -30.792999267578118 L 38.481903076171875 -30.719999313354485 L 38.53200149536133 -30.69000053405761 L 38.71500015258789 -30.604000091552727 L 38.90399932861328 -30.535999298095696 M 30.844999313354492 -28.17094993591308 L 30.801000595092773 -28.294000625610344 L 30.275999069213867 -29.403999328613274 L 29.645000457763672 -30.45599937438964 L 28.915000915527344 -31.440999984741204 L 28.090999603271484 -32.351001739501946 L 27.630983352661133 -32.76800155639648 L 27.18199920654297 -33.17499923706054 L 26.195999145507812 -33.90499877929687 L 25.143999099731445 -34.535999298095696 L 24.03499984741211 -35.0610008239746 L 22.878999710083008 -35.47399902343749 L 22.735240936279297 -35.509998321533196 L 21.68899917602539 -35.77199935913085 L 20.475000381469727 -35.95199966430663 L 19.25 -36.01200103759765 L 18.024999618530273 -35.95199966430663 L 16.81100082397461 -35.77199935913085 L 15.764758110046387 -35.509998321533196 L 15.621000289916992 -35.47399902343749 L 14.465999603271484 -35.0610008239746 L 13.355999946594238 -34.535999298095696 L 12.303999900817871 -33.90499877929687 L 11.319000244140625 -33.17499923706054 L 10.869522094726562 -32.76800155639648 L 10.409000396728516 -32.351001739501946 L 9.585000038146973 -31.440999984741204 L 8.854999542236328 -30.45599937438964 L 8.223999977111816 -29.403999328613274 L 7.698999881744385 -28.294000625610344 L 7.285999774932861 -27.138999938964837 L 6.98799991607666 -25.94899940490722 L 6.808000087738037 -24.735000610351555 L 6.748000144958496 -23.510000228881832 L 6.808000087738037 -22.284999847412106 L 6.98799991607666 -21.07099914550781 L 7.285999774932861 -19.881000518798825 L 7.698999881744385 -18.725000381469723 L 8.223999977111816 -17.615999221801754 L 8.854999542236328 -16.563999176025387 L 8.988265991210938 -16.38400077819824 L 9.585000038146973 -15.578000068664547 L 10.409000396728516 -14.668999671936032 L 11.319000244140625 -13.845000267028805 L 12.303999900817871 -13.11499977111816 L 13.355999946594238 -12.484000205993649 L 13.893028259277344 -12.229999542236325 L 14.465999603271484 -11.95899963378906 L 15.621000289916992 -11.545999526977537 L 16.384000778198242 -11.354928970336912 L 16.81100082397461 -11.248000144958494 L 18.024999618530273 -11.067999839782713 L 19.25 -11.00699996948242 L 20.475000381469727 -11.067999839782713 L 21.68899917602539 -11.248000144958494 L 22.878999710083008 -11.545999526977537 L 24.03499984741211 -11.95899963378906 L 24.607454299926758 -12.229999542236325 L 25.143999099731445 -12.484000205993649 L 26.195999145507812 -13.11499977111816 L 27.18199920654297 -13.845000267028805 L 28.090999603271484 -14.668999671936032 L 28.915000915527344 -15.578000068664547 L 29.511734008789062 -16.38400077819824 L 29.645000457763672 -16.563999176025387 L 30.275999069213867 -17.615999221801754 L 30.801000595092773 -18.725000381469723 L 30.844999313354492 -18.848157882690426 L 31.214000701904297 -19.881000518798825 L 31.511999130249023 -21.07099914550781 L 31.691999435424805 -22.284999847412106 L 31.753000259399414 -23.510000228881832 L 31.691999435424805 -24.735000610351555 L 31.511999130249023 -25.94899940490722 L 31.214000701904297 -27.138999938964837 L 30.844999313354492 -28.17094993591308 M 38.90399932861328 62.96400070190428 L 38.9119987487793 62.96599960327147 L 39.099998474121094 63.013000488281236 L 39.29899978637695 63.04299926757811 L 39.5 63.05300140380858 L 39.70100021362305 63.04299926757811 L 39.900001525878906 63.013000488281236 L 40.09600067138672 62.96400070190428 L 40.28499984741211 62.89599990844725 L 40.46799850463867 62.810001373291 L 40.63999938964844 62.70700073242186 L 40.801998138427734 62.587001800537095 L 40.95100021362305 62.45100021362303 L 40.959999084472656 62.44113922119139 L 41.08700180053711 62.30199813842772 L 41.207000732421875 62.13999938964842 L 41.310001373291016 61.96799850463866 L 41.395999908447266 61.784999847412095 L 41.4640007019043 61.596000671386705 L 41.50299835205078 61.43999862670897 L 41.51300048828125 61.40000152587889 L 41.542999267578125 61.20100021362303 L 41.551998138427734 60.999999999999986 L 41.542999267578125 60.79899978637694 L 41.51300048828125 60.59999847412108 L 41.4640007019043 60.40399932861327 L 41.395999908447266 60.215000152587876 L 41.310001373291016 60.032001495361314 L 41.207000732421875 59.86000061035155 L 41.08700180053711 59.69800186157225 L 40.959999084472656 59.55886077880858 L 40.95100021362305 59.54899978637694 L 40.801998138427734 59.412998199462876 L 40.63999938964844 59.29299926757811 L 40.46799850463867 59.18999862670897 L 40.28499984741211 59.10400009155272 L 40.09600067138672 59.03599929809569 L 39.900001525878906 58.986999511718736 L 39.70100021362305 58.95700073242186 L 39.5 58.94800186157225 L 39.29899978637695 58.95700073242186 L 39.099998474121094 58.986999511718736 L 38.9119987487793 59.0340003967285 L 38.90399932861328 59.03599929809569 L 38.71500015258789 59.10400009155272 L 38.53200149536133 59.18999862670897 L 38.36000061035156 59.29299926757811 L 38.226348876953125 59.39199829101561 L 38.198001861572266 59.412998199462876 L 38.04899978637695 59.54899978637694 L 37.91299819946289 59.69800186157225 L 37.792999267578125 59.86000061035155 L 37.689998626708984 60.032001495361314 L 37.604000091552734 60.215000152587876 L 37.5359992980957 60.40399932861327 L 37.48699951171875 60.59999847412108 L 37.457000732421875 60.79899978637694 L 37.448001861572266 60.999999999999986 L 37.457000732421875 61.20100021362303 L 37.48699951171875 61.40000152587889 L 37.49700164794922 61.43999862670897 L 37.5359992980957 61.596000671386705 L 37.604000091552734 61.784999847412095 L 37.689998626708984 61.96799850463866 L 37.792999267578125 62.13999938964842 L 37.91299819946289 62.30199813842772 L 38.04899978637695 62.45100021362303 L 38.198001861572266 62.587001800537095 L 38.36000061035156 62.70700073242186 L 38.53200149536133 62.810001373291 L 38.71500015258789 62.89599990844725 L 38.90399932861328 62.96400070190428 M 38.75899887084961 0.9330000281333922 L 38.9119987487793 0.9707777500152587 L 39.00199890136719 0.9929999709129332 L 39.25 1.0299999713897705 L 39.5 1.0429999828338623 L 39.75 1.0299999713897705 L 39.99800109863281 0.9929999709129332 L 40.24100112915039 0.9330000281333922 L 40.47700119018555 0.8479999899864196 L 40.702999114990234 0.7409999966621399 L 40.917999267578125 0.6119999885559082 L 40.959999084472656 0.5808656811714172 L 41.11899948120117 0.46299999952316284 L 41.30500030517578 0.2949999868869782 L 41.472999572753906 0.10899999737739571 L 41.551998138427734 0.0024295302573592577 L 41.553802490234375 1.1102230246251565e-16 L 41.62200164794922 -0.09200000017881381 L 41.750999450683594 -0.30700001120567305 L 41.858001708984375 -0.5329999923706052 L 41.94300079345703 -0.7689999938011166 L 42.00299835205078 -1.0119999647140498 L 42.040000915527344 -1.2599999904632564 L 42.053001403808594 -1.5099999904632564 L 42.040000915527344 -1.7599999904632564 L 42.00299835205078 -2.0079998970031734 L 41.99312210083008 -2.04800009727478 L 41.94300079345703 -2.2509999275207515 L 41.858001708984375 -2.4869999885559078 L 41.750999450683594 -2.713000059127807 L 41.62200164794922 -2.9279999732971187 L 41.551998138427734 -3.0224294662475577 L 41.472999572753906 -3.128999948501586 L 41.30500030517578 -3.315000057220458 L 41.11899948120117 -3.4830000400543204 L 40.959999084472656 -3.6008656024932852 L 40.917999267578125 -3.631999969482421 L 40.702999114990234 -3.760999917984008 L 40.47700119018555 -3.8680000305175772 L 40.24100112915039 -3.95300006866455 L 39.99800109863281 -4.013000011444091 L 39.75 -4.050000190734862 L 39.5 -4.061999797821044 L 39.25 -4.050000190734862 L 39.00199890136719 -4.013000011444091 L 38.9119987487793 -3.9907777309417716 L 38.75899887084961 -3.95300006866455 L 38.52299880981445 -3.8680000305175772 L 38.297000885009766 -3.760999917984008 L 38.082000732421875 -3.631999969482421 L 37.88100051879883 -3.4830000400543204 L 37.69499969482422 -3.315000057220458 L 37.527000427246094 -3.128999948501586 L 37.448001861572266 -3.0224294662475577 L 37.37799835205078 -2.9279999732971187 L 37.249000549316406 -2.713000059127807 L 37.141998291015625 -2.4869999885559078 L 37.05699920654297 -2.2509999275207515 L 37.00687789916992 -2.04800009727478 L 36.99700164794922 -2.0079998970031734 L 36.959999084472656 -1.7599999904632564 L 36.948001861572266 -1.5099999904632564 L 36.959999084472656 -1.2599999904632564 L 36.99700164794922 -1.0119999647140498 L 37.05699920654297 -0.7689999938011166 L 37.141998291015625 -0.5329999923706052 L 37.249000549316406 -0.30700001120567305 L 37.37799835205078 -0.09200000017881381 L 37.446197509765625 1.1102230246251565e-16 L 37.448001861572266 0.0024295302573592577 L 37.527000427246094 0.10899999737739571 L 37.69499969482422 0.2949999868869782 L 37.88100051879883 0.46299999952316284 L 38.082000732421875 0.6119999885559082 L 38.297000885009766 0.7409999966621399 L 38.52299880981445 0.8479999899864196 L 38.75899887084961 0.9330000281333922 M 8.112000465393066 1.1102230246251565e-16 L 8.112000465393066 -8.546999931335447 L 0 -8.546999931335447 L -6.111999988555908 -8.546999931335447 L -6.111999988555908 1.1102230246251565e-16 L -6.111999988555908 5.677000045776366 L 0 5.677000045776366 L 8.112000465393066 5.677000045776366 L 8.112000465393066 1.1102230246251565e-16 M -25.16200065612793 -8.546999931335447 L -25.16200065612793 1.1102230246251565e-16 L -25.16200065612793 5.677000045776366 L -10.937999725341797 5.677000045776366 L -10.937999725341797 1.1102230246251565e-16 L -10.937999725341797 -8.546999931335447 L -25.16200065612793 -8.546999931335447 M 16.384000778198242 10.503000259399412 L 12.937999725341797 10.503000259399412 L 12.937999725341797 16.38400077819824 L 12.937999725341797 24.726999282836907 L 16.384000778198242 24.726999282836907 L 27.16200065612793 24.726999282836907 L 27.16200065612793 16.38400077819824 L 27.16200065612793 10.75699996948242 L 27.152999877929688 10.69099998474121 L 27.128000259399414 10.630000114440916 L 27.08799934387207 10.576999664306639 L 27.03499984741211 10.536999702453612 L 26.974000930786133 10.512000083923338 L 26.908000946044922 10.503000259399412 L 16.384000778198242 10.503000259399412 M 8.112000465393066 16.38400077819824 L 8.112000465393066 10.503000259399412 L 0 10.503000259399412 L -6.111999988555908 10.503000259399412 L -6.111999988555908 16.38400077819824 L -6.111999988555908 24.726999282836907 L 0 24.726999282836907 L 1.5455000400543213 24.726999282836907 L 4.339886665344238 24.726999282836907 L 6.048081874847412 24.726999282836907 L 7.4192728996276855 24.726999282836907 L 8.112000465393066 24.726999282836907 L 8.112000465393066 16.38400077819824 M 0 29.552999496459954 L -6.111999988555908 29.552999496459954 L -6.111999988555908 32.76800155639648 L -6.111999988555908 43.77700042724609 L 0 43.77700042724609 L 1.5455000400543213 43.77700042724609 L 4.339886665344238 43.77700042724609 L 6.048081874847412 43.77700042724609 L 7.4192728996276855 43.77700042724609 L 8.112000465393066 43.77700042724609 L 8.112000465393066 32.76800155639648 L 8.112000465393066 29.80699920654296 L 8.102999687194824 29.74099922180175 L 8.07800006866455 29.680000305175774 L 8.038000106811523 29.627000808715813 L 7.985000133514404 29.58699989318847 L 7.923999786376953 29.562000274658196 L 7.857999801635742 29.552999496459954 L 0 29.552999496459954 M -10.937999725341797 16.38400077819824 L -10.937999725341797 10.503000259399412 L -25.16200065612793 10.503000259399412 L -25.16200065612793 16.38400077819824 L -25.16200065612793 24.726999282836907 L -10.937999725341797 24.726999282836907 L -10.937999725341797 16.38400077819824 M -10.937999725341797 32.76800155639648 L -10.937999725341797 29.552999496459954 L -25.16200065612793 29.552999496459954 L -25.16200065612793 32.76800155639648 L -25.16200065612793 43.77700042724609 L -10.937999725341797 43.77700042724609 L -10.937999725341797 32.76800155639648 M 7.857999801635742 48.603000640869126 L 0 48.603000640869126 L -6.111999988555908 48.603000640869126 L -6.111999988555908 62.826999664306626 L 0 62.826999664306626 L 8.112000465393066 62.826999664306626 L 8.112000465393066 49.15200042724608 L 8.112000465393066 48.8569984436035 L 8.102999687194824 48.79100036621092 L 8.07800006866455 48.729999542236314 L 8.038000106811523 48.67699813842772 L 7.985000133514404 48.63700103759764 L 7.923999786376953 48.611999511718736 L 7.857999801635742 48.603000640869126 M -10.937999725341797 48.603000640869126 L -25.16200065612793 48.603000640869126 L -25.16200065612793 62.826999664306626 L -10.937999725341797 62.826999664306626 L -10.937999725341797 48.603000640869126 M 27.16200065612793 -8.546999931335447 L 12.937999725341797 -8.546999931335447 L 12.937999725341797 1.1102230246251565e-16 L 12.937999725341797 5.677000045776366 L 16.384000778198242 5.677000045776366 L 20.595500946044922 5.677000045776366 L 23.3898868560791 5.677000045776366 L 25.098081588745117 5.677000045776366 L 26.46927261352539 5.677000045776366 L 27.16200065612793 5.677000045776366 L 27.16200065612793 1.1102230246251565e-16 L 27.16200065612793 -8.546999931335447 M 16.384000778198242 29.552999496459954 L 12.937999725341797 29.552999496459954 L 12.937999725341797 32.76800155639648 L 12.937999725341797 43.77700042724609 L 16.384000778198242 43.77700042724609 L 27.16200065612793 43.77700042724609 L 27.16200065612793 32.76800155639648 L 27.16200065612793 29.552999496459954 L 16.384000778198242 29.552999496459954 M 16.384000778198242 48.603000640869126 L 12.937999725341797 48.603000640869126 L 12.937999725341797 49.15200042724608 L 12.937999725341797 62.826999664306626 L 27.16200065612793 62.826999664306626 L 27.16200065612793 49.15200042724608 L 27.16200065612793 48.603000640869126 L 16.384000778198242 48.603000640869126 z" fill="none" stroke="rgb(255,0,0)" stroke-width="0.001mm" />
</svg>